<svg width="556" height="806" viewBox="0 0 556 806" fill="none" xmlns="http://www.w3.org/2000/svg">
<path d="M26.0334 52.1564L45.0173 30.8479C46.9148 28.7181 49.6314 27.5 52.4839 27.5H248.193C250.942 27.5 253.57 28.632 255.459 30.6299L275.766 52.1088C277.522 53.9655 278.5 56.4237 278.5 58.9789V208.932C278.5 210.931 277.901 212.885 276.779 214.54L270.975 223.108C269.114 225.855 266.013 227.5 262.696 227.5H200.906C197.002 227.5 193.454 225.227 191.822 221.68L171.178 176.82C169.546 173.273 165.998 171 162.094 171H51.9584C49.4155 171 46.968 170.031 45.114 168.291L26.6556 150.962C24.6421 149.072 23.5 146.433 23.5 143.672V58.8084C23.5 56.3554 24.4016 53.988 26.0334 52.1564Z" stroke="black"/>
<path d="M538.967 52.1564L519.983 30.8479C518.085 28.7181 515.369 27.5 512.516 27.5H316.807C314.058 27.5 311.43 28.632 309.541 30.6299L289.234 52.1088C287.478 53.9655 286.5 56.4237 286.5 58.9789V208.932C286.5 210.931 287.099 212.885 288.221 214.54L294.025 223.108C295.886 225.855 298.987 227.5 302.304 227.5H364.094C367.998 227.5 371.546 225.227 373.178 221.68L393.822 176.82C395.454 173.273 399.002 171 402.906 171H513.042C515.585 171 518.032 170.031 519.886 168.291L538.344 150.962C540.358 149.072 541.5 146.433 541.5 143.672V58.8084C541.5 56.3554 540.598 53.988 538.967 52.1564Z" stroke="black"/>
<path d="M3.23035 34.7544L32.6266 3.63326C34.5157 1.63334 37.1452 0.5 39.8963 0.5H517.851C520.699 0.5 523.412 1.71459 525.31 3.83903L552.959 34.7992C554.595 36.6319 555.5 39.0031 555.5 41.4602V778.587C555.5 781.978 553.781 785.138 550.934 786.981L524.808 803.895C523.189 804.942 521.302 805.5 519.373 805.5H38.4035C36.5612 805.5 34.7546 804.991 33.1832 804.029L5.27969 786.951C2.31045 785.134 0.5 781.903 0.5 778.422V41.6211C0.5 39.0675 1.47688 36.6107 3.23035 34.7544Z" stroke="black"/>
<path d="M509.5 245H48L29 271.5V501L48 524H509.5L530 501V271.5L509.5 245Z" stroke="black"/>
<path d="M32.5 561.5L49.5 538.5H176L196 561.5H314.5L339.5 538.5H487.5L514 561.5V747.5L502 778.5H49.5L32.5 747.5V561.5Z" stroke="black"/>
</svg>
